<svg width="12" height="14" viewBox="0 0 12 14" fill="none" xmlns="http://www.w3.org/2000/svg">
<path d="M11.6875 10.375C10.9512 10.375 10.875 9.5625 9.7832 9.5625C8.69141 9.5625 8.58984 10.375 7.87891 10.375C7.19336 10.375 7.0918 9.5625 6 9.5625C4.9082 9.5625 4.78125 10.375 4.0957 10.375C3.38477 10.375 3.30859 9.5625 2.19141 9.5625C1.09961 9.5625 1.02344 10.375 0.3125 10.375V8.34375C0.3125 7.68359 0.845703 7.125 1.53125 7.125H1.9375V3.46875H3.5625V7.125H5.1875V3.46875H6.8125V7.125H8.4375V3.46875H10.0625V7.125H10.4688C11.1289 7.125 11.6875 7.68359 11.6875 8.34375V10.375ZM11.6875 13.625H0.3125V11.1875C1.4043 11.1875 1.48047 10.375 2.19141 10.375C2.90234 10.375 3.00391 11.1875 4.0957 11.1875C5.1875 11.1875 5.28906 10.375 6 10.375C6.71094 10.375 6.78711 11.1875 7.87891 11.1875C8.99609 11.1875 9.07227 10.375 9.7832 10.375C10.4688 10.375 10.5703 11.1875 11.6875 11.1875V13.625ZM2.75 3.0625C2.29297 3.0625 1.9375 2.70703 1.9375 2.25C1.9375 1.46289 2.75 1.66602 2.75 0.625C3.05469 0.625 3.5625 1.38672 3.5625 2.04688C3.5625 2.73242 3.18164 3.0625 2.75 3.0625ZM6 3.0625C5.54297 3.0625 5.1875 2.70703 5.1875 2.25C5.1875 1.46289 6 1.66602 6 0.625C6.30469 0.625 6.8125 1.38672 6.8125 2.04688C6.8125 2.73242 6.43164 3.0625 6 3.0625ZM9.25 3.0625C8.79297 3.0625 8.4375 2.70703 8.4375 2.25C8.4375 1.46289 9.25 1.66602 9.25 0.625C9.55469 0.625 10.0625 1.38672 10.0625 2.04688C10.0625 2.73242 9.68164 3.0625 9.25 3.0625Z" fill="#050542"/>
</svg>
