<svg width="15" height="16" viewBox="0 0 15 16" fill="none" xmlns="http://www.w3.org/2000/svg">
<path d="M14.7051 7.45898C14.8711 7.5918 14.8711 7.85742 14.7051 8.02344L7.76562 14.9629C7.59961 15.1289 7.36719 15.1289 7.20117 14.9629L0.261719 8.02344C0.0957031 7.85742 0.0957031 7.5918 0.261719 7.45898L0.892578 6.79492C1.05859 6.62891 1.32422 6.62891 1.45703 6.79492L6.63672 11.9414V0.585938C6.63672 0.386719 6.80273 0.1875 7.03516 0.1875H7.96484C8.16406 0.1875 8.36328 0.386719 8.36328 0.585938V11.9414L13.5098 6.79492C13.6426 6.62891 13.9082 6.62891 14.0742 6.79492L14.7051 7.45898Z" fill="#050542"/>
</svg>
