<svg width="16" height="15" viewBox="0 0 16 15" fill="none" xmlns="http://www.w3.org/2000/svg">
<path d="M7.78271 0.419922C7.91553 0.253906 8.18115 0.253906 8.34717 0.419922L15.2866 7.35938C15.4526 7.52539 15.4526 7.75781 15.2866 7.92383L8.34717 14.8633C8.18115 15.0293 7.91553 15.0293 7.78271 14.8633L7.11865 14.2324C6.95264 14.0664 6.95264 13.8008 7.11865 13.668L12.2651 8.48828H0.942871C0.710449 8.48828 0.544434 8.32227 0.544434 8.08984V7.16016C0.544434 6.96094 0.710449 6.76172 0.942871 6.76172H12.2651L7.11865 1.61523C6.95264 1.48242 6.95264 1.2168 7.11865 1.05078L7.78271 0.419922Z" fill="#050542"/>
</svg>
