<svg width="25" height="21" viewBox="0 0 25 21" fill="none" xmlns="http://www.w3.org/2000/svg">
<path d="M0 9.25C0 8.58594 0.546875 8 1.25 8H3.75V20.5H0.625C0.273438 20.5 0 20.2266 0 19.875V9.25ZM14.0625 7.375C14.2188 7.375 14.375 7.53125 14.375 7.6875V8.3125C14.375 8.50781 14.2188 8.625 14.0625 8.625H12.1875C11.9922 8.625 11.875 8.50781 11.875 8.3125V5.8125C11.875 5.65625 11.9922 5.5 12.1875 5.5H12.8125C12.9688 5.5 13.125 5.65625 13.125 5.8125V7.375H14.0625ZM19.4141 4.91406C19.7656 5.10938 20 5.5 20 5.92969V20.5H15V14.875C15 14.5625 14.6875 14.25 14.375 14.25H10.625C10.2734 14.25 10 14.5625 10 14.875V20.5H5V5.92969C5 5.57812 5.23438 5.10938 5.54688 4.91406L11.7969 0.734375C11.9531 0.617188 12.2656 0.5 12.5 0.5C12.6953 0.5 13.0078 0.617188 13.1641 0.734375L19.4141 4.91406ZM12.5 10.5C14.2188 10.5 15.625 9.13281 15.625 7.375C15.625 5.65625 14.2188 4.25 12.5 4.25C10.7422 4.25 9.375 5.65625 9.375 7.375C9.375 9.13281 10.7422 10.5 12.5 10.5ZM23.75 8C24.4141 8 25 8.58594 25 9.25V19.875C25 20.2266 24.6875 20.5 24.375 20.5H21.25V8H23.75Z" fill="#050542"/>
</svg>
