<svg width="25" height="19" viewBox="0 0 25 19" fill="none" xmlns="http://www.w3.org/2000/svg">
<path d="M3.75 8.25C2.34375 8.25 1.25 7.15625 1.25 5.75C1.25 4.38281 2.34375 3.25 3.75 3.25C5.11719 3.25 6.25 4.38281 6.25 5.75C6.25 7.15625 5.11719 8.25 3.75 8.25ZM21.25 8.25C19.8438 8.25 18.75 7.15625 18.75 5.75C18.75 4.38281 19.8438 3.25 21.25 3.25C22.6172 3.25 23.75 4.38281 23.75 5.75C23.75 7.15625 22.6172 8.25 21.25 8.25ZM22.5 9.5C23.8672 9.5 25 10.6328 25 12V13.25C25 13.9531 24.4141 14.5 23.75 14.5H21.1719C20.8984 12.6641 19.8047 11.1016 18.2031 10.2422C18.6719 9.8125 19.2969 9.5 20 9.5H22.5ZM12.5 9.5C10.0781 9.5 8.125 7.54688 8.125 5.125C8.125 2.74219 10.0781 0.75 12.5 0.75C14.8828 0.75 16.875 2.74219 16.875 5.125C16.875 7.54688 14.8828 9.5 12.5 9.5ZM15.4688 10.75C17.9688 10.75 20 12.7812 20 15.2812V16.375C20 17.4297 19.1406 18.25 18.125 18.25H6.875C5.82031 18.25 5 17.4297 5 16.375V15.2812C5 12.7812 6.99219 10.75 9.49219 10.75H9.80469C10.625 11.1406 11.5234 11.375 12.5 11.375C13.4375 11.375 14.3359 11.1406 15.1562 10.75H15.4688ZM6.75781 10.2422C5.15625 11.1016 4.0625 12.6641 3.78906 14.5H1.25C0.546875 14.5 0 13.9531 0 13.25V12C0 10.6328 1.09375 9.5 2.5 9.5H5C5.66406 9.5 6.28906 9.8125 6.75781 10.2422Z" fill="#050542"/>
</svg>
