<svg width="10" height="14" viewBox="0 0 10 14" fill="none" xmlns="http://www.w3.org/2000/svg">
<path d="M4.49219 13.3711C0.785156 8.03906 0.125 7.48047 0.125 5.5C0.125 2.80859 2.2832 0.625 5 0.625C7.69141 0.625 9.875 2.80859 9.875 5.5C9.875 7.48047 9.18945 8.03906 5.48242 13.3711C5.25391 13.7266 4.7207 13.7266 4.49219 13.3711ZM5 7.53125C6.11719 7.53125 7.03125 6.64258 7.03125 5.5C7.03125 4.38281 6.11719 3.46875 5 3.46875C3.85742 3.46875 2.96875 4.38281 2.96875 5.5C2.96875 6.64258 3.85742 7.53125 5 7.53125Z" fill="#050542"/>
</svg>
