<svg width="17" height="18" viewBox="0 0 17 18" fill="none" xmlns="http://www.w3.org/2000/svg">
<path d="M16.7676 14.834C17.0664 15.166 17.0664 15.6641 16.7344 15.9629L15.8047 16.8926C15.5059 17.2246 15.0078 17.2246 14.6758 16.8926L11.3887 13.6055C11.2227 13.4395 11.1562 13.2402 11.1562 13.041V12.4766C9.96094 13.4062 8.5 13.9375 6.90625 13.9375C3.08789 13.9375 0 10.8496 0 7.03125C0 3.24609 3.08789 0.125 6.90625 0.125C10.6914 0.125 13.8125 3.24609 13.8125 7.03125C13.8125 8.6582 13.248 10.1191 12.3516 11.2812H12.8828C13.082 11.2812 13.2812 11.3809 13.4473 11.5137L16.7676 14.834ZM6.90625 11.2812C9.23047 11.2812 11.1562 9.38867 11.1562 7.03125C11.1562 4.70703 9.23047 2.78125 6.90625 2.78125C4.54883 2.78125 2.65625 4.70703 2.65625 7.03125C2.65625 9.38867 4.54883 11.2812 6.90625 11.2812Z" fill="#050542"/>
</svg>
